name processed_emg_signals
nRows=60
nColumns=7
 
endheader
time	LGLTMED	LRF	LADDLONG	LBF	LTA	LGM
1.9219999999999622	0.0026245782145345	0.0076243810291533	0.0043964332853014	0.0040041543630357	0.7527587145577265	0.0015690785924884
1.922999999999962	0.0026065713858937	0.0075954752689512	0.0044093338718571	0.0040034997869245	0.7441271541502655	0.0015545813186861
1.923999999999962	0.0025885481118326	0.0075671406191161	0.0044227842369571	0.0040045036366523	0.7354751664819691	0.0015400384576898
1.9249999999999619	0.0025705404173246	0.007539405109259	0.0044367847937196	0.0040072053995958	0.7268122169104066	0.0015254658586618
1.9259999999999617	0.0025525809948622	0.0075122952401254	0.0044513350553097	0.0040116418801251	0.7181476792096606	0.0015108792111139
1.9269999999999616	0.0025347031349814	0.0074858359323586	0.0044664336132571	0.0040178470900058	0.7094908193537424	0.0014962940173696
1.9279999999999615	0.0025169406547201	0.0074600504785264	0.0044820781172899	0.0040258521441174	0.7008507795324699	0.0014817255654199
1.9289999999999614	0.002499327824218	0.0074349604985656	0.004498265256739	0.004035685161693	0.6922365624413382	0.0014671889022459
1.9299999999999613	0.0024818992916713	0.0074105858988018	0.0045149907435801	0.0040473711732768	0.6836570158865014	0.0014526988076851
1.9309999999999612	0.0024646900068572	0.0073869448346941	0.0045322492971913	0.0040609320335827	0.6751208177444352	0.0014382697689128
1.931999999999961	0.0024477351434377	0.0073640536774482	0.0045500346309116	0.0040763863404269	0.6666364613138467	0.001423915955607
1.932999999999961	0.0024310700202476	0.0073419269846389	0.0045683394404852	0.0040937493598943	0.6582122410954276	0.0014096511958623
1.9339999999999609	0.0024147300217661	0.007320577474974	0.004587155394478	0.0041130329578804	0.6498562390331933	0.001395488952911
1.9349999999999608	0.0023987505179698	0.0073000160073222	0.0046064731267457	0.0041342455381455	0.641576311249306	0.0013814423027107
1.9359999999999606	0.0023831667837613	0.0072802515641212	0.0046262822310336	0.0041573919870034	0.6333800753024127	0.0013675239124518
1.9369999999999605	0.002368013918167	0.0072612912392665	0.0046465712577825	0.0041824736247662	0.6252748979976575	0.0013537460200341
1.9379999999999604	0.0023533267634943	0.0072431402305834	0.0046673277132113	0.0042094881640596	0.6172678837746934	0.0013401204145613
1.9389999999999603	0.0023391398246353	0.0072258018369658	0.0046885380607364	0.0042384296751199	0.6093658636983001	0.001326658417896
1.9399999999999602	0.0023254871886984	0.0072092774602682	0.0047101877247773	0.0042692885581747	0.6015753850745865	0.0013133708673177
1.94099999999996	0.0023124024451443	0.0071935666120179	0.0047322610969891	0.0043020515230006	0.5939027017142049	0.0013002680993211
1.94199999999996	0.0022999186065973	0.0071786669250054	0.0047547415449459	0.0043367015757417	0.5863537648624668	0.0012873599345956
1.9429999999999599	0.0022880680305001	0.0071645741697918	0.0047776114232932	0.0043732180130605	0.5789342148147023	0.0012746556642159
1.9439999999999598	0.0022768823417742	0.0071512822761485	0.0048008520873695	0.0044115764236869	0.571649373233597	0.0012621640370798
1.9449999999999597	0.0022663923566478	0.0071387833594234	0.0048244439092906	0.0044517486974168	0.564504236183555	0.0012498932486193
1.9459999999999595	0.0022566280078088	0.0071270677518018	0.0048483662964825	0.0044937030416043	0.5575034678953604	0.0012378509308127
1.9469999999999594	0.0022476182710392	0.0071161240384121	0.0048725977126487	0.0045374040051789	0.550651395272557	0.001226044143518
1.9479999999999593	0.002239391093481	0.0071059390982108	0.0048971157011575	0.0045828125102054	0.5439520031490919	0.0012144793671475
1.9489999999999592	0.0022319733236781	0.0070964981495641	0.0049218969108328	0.0046298858909918	0.5374089303058884	0.001203162496697
1.949999999999959	0.0022253906435388	0.0070877848004288	0.0049469171241243	0.0046785779407347	0.5310254662521235	0.0011920988371408
1.950999999999959	0.00221966750235	0.007079781103009	0.0049721512876235	0.004728838965679	0.5248045487751238	0.0011812931002011
1.9519999999999589	0.0022148270529794	0.0070724676127489	0.0049975735448781	0.0047806158467553	0.5187487622610418	0.0011707494024958
1.9529999999999588	0.0022108910903929	0.007065823451496	0.0050231572714446	0.0048338521086459	0.5128603367868987	0.0011604712650656
1.9539999999999587	0.0022078799926126	0.0070598263746546	0.0050488751121042	0.0048884879962149	0.507141147983103	0.0011504616142791
1.9549999999999585	0.0022058126642397	0.0070544528421218	0.005074699020156	0.004944460558223	0.5015927176640752	0.0011407227841095
1.9559999999999584	0.002204706482661	0.0070496780927833	0.0051006002986881	0.0050017037382328	0.4962162152230865	0.0011312565197762
1.9569999999999583	0.0022045772470521	0.0070454762223277	0.0051265496437149	0.0050601484725909	0.4910124597858634	0.0011220639827371
1.9579999999999582	0.0022054391302837	0.0070418202641245	0.0051525171890563	0.0051197227953647	0.4859819231159521	0.0011131457570206
1.958999999999958	0.0022073046338325	0.0070386822728938	0.0051784725528201	0.0051803519500908	0.4811247332632372	0.0011045018568781
1.959999999999958	0.0022101845457897	0.0070360334108792	0.0052043848853366	0.0052419585081853	0.4764406789453715	0.0010961317357372
1.9609999999999579	0.0022140879020573	0.0070338440362167	0.0052302229183824	0.0053044624938477	0.4719292146502268	0.0010880342964319
1.961999999999958	0.002219021950816	0.0070320837931714	0.005255955015517	0.0053677815152749	0.4675894664458717	0.001080207902681
1.962999999999958	0.0022249921203452	0.0070307217038961	0.0052815492233399	0.0054318309019849	0.4634202384830123	0.0010726503917838
1.9639999999999578	0.0022320019902677	0.0070297262613455	0.0053069733234628	0.00549652384803	0.4594200201732833	0.0010653590884973
1.9649999999999577	0.0022400532662859	0.0070290655229686	0.0053321948849781	0.0055617715608611	0.4555869940252839	0.0010583308200577
1.9659999999999576	0.0022491457584722	0.0070287072047893	0.0053571813172081	0.0056274834155867	0.451919044118874	0.0010515619323058
1.9669999999999574	0.0022592773631638	0.0070286187754793	0.0053818999225303	0.0056935671143471	0.4484137651969121	0.0010450483068739
1.9679999999999573	0.0022704440485114	0.0070287675500266	0.0054063179491015	0.0057599288505111	0.4450684723522565	0.0010387853793901
1.9689999999999572	0.0022826398437221	0.0070291207825992	0.0054304026433336	0.0058264734773801	0.4418802112864838	0.0010327681586519
1.9699999999999571	0.0022958568320272	0.0070296457582113	0.0054541213020042	0.0058931046810753	0.4388457691154057	0.0010269912467189
1.970999999999957	0.0023100851474041	0.0070303098828159	0.0054774413239014	0.0059597251572649	0.4359616856951031	0.0010214488598696
1.971999999999957	0.0023253129750738	0.0070310807714749	0.005500330260928	0.0060262367913748	0.433224265440806	0.0010161348503677
1.9729999999999568	0.0023415265557877	0.0070319263342841	0.0055227558686005	0.0060925408419113	0.4306295896095522	0.0010110427289752
1.9739999999999567	0.0023587101939186	0.0070328148597594	0.0055446861558989	0.0061585381265117	0.4281735290162379	0.0010061656881534
1.9749999999999566	0.0023768462693609	0.0070337150954044	0.0055660894344319	0.0062241292103326	0.4258517571514512	0.0010014966258858
1.9759999999999565	0.0023959152532419	0.0070345963252155	0.0055869343668955	0.0062892145963847	0.4236597636683718	0.0009970281700566
1.9769999999999563	0.0024158957274421	0.0070354284439151	0.0056071900148069	0.006353694917422	0.4215928682050147	0.0009927527033174
1.9779999999999562	0.0024367644079162	0.0070361820277657	0.0056268258854974	0.0064174711289967	0.4196462345073589	0.0009886623883713
1.9789999999999561	0.0024584961718047	0.007036828401869	0.0056458119783451	0.0064804447032792	0.4178148848184989	0.0009847491936044
1.979999999999956	0.0024810640883192	0.0070373397039058	0.0056641188302206	0.0065425178232382	0.4160937144988714	0.000981004918993
1.980999999999956	0.0025044394533774	0.0070376889443111	0.0056817175601165	0.0066035935767552	0.4144775068426636	0.000977421222219
